<svg xmlns="http://www.w3.org/2000/svg" style="height:80px; width: 80px" viewBox="0 0 842 842">
  <style>
    @keyframes anim{0%,14.99%,99.99%{fill:url(#linearGradient-1)}15%{transform:translateY(40px) translateX(5px);fill:#40368a}44.99%,69.99%{fill:#40368a}45%,to{transform:translateY(0) translateX(5px);fill:#40368a}70%{transform:translateY(40px) translateX(5px);fill:url(#linearGradient-1)}}@keyframes anim_reverse{0%,14.99%,99.99%{fill:#40368a}15%{transform:translateY(-40px);fill:url(#linearGradient-1)}44.99%,69.99%{fill:url(#linearGradient-1)}45%,to{transform:translateY(0);fill:url(#linearGradient-1)}70%{transform:translateY(-40px);fill:#40368a}}
  </style>
  <defs>
    <linearGradient id="linearGradient-1" x1=".003%" x2="100.01%" y1="50.004%" y2="50.004%">
      <stop offset="0%" stop-color="#968CF9"/>
      <stop offset="99.2%" stop-color="#2B88F7"/>
    </linearGradient>
  </defs>
  <g id="Page-1" fill="none" fill-rule="evenodd">
    <g id="wppb" fill-rule="nonzero">
      <path style="transform:translateY(0);animation:anim_reverse 1500ms infinite linear" fill="#40368a" d="M673.6 467L421.9 648.7 170.3 467l251.6-181.6z"/>
      <path style="transform:translateY(0) translateX(5px);animation:anim 1500ms infinite linear" fill="url(#linearGradient-1)" d="M667.7 385.4L416.1 567 164.4 385.4l251.7-181.7z"/>
      <path style="animation:circle 1s infinite linear;transform-origin:center center" fill="url(#linearGradient-1)" d="M420.9 842c-56.8 0-111.9-11.1-163.7-33.1-50.1-21.2-95.1-51.5-133.7-90.1-38.6-38.6-69-83.6-90.1-133.7C11.5 533.2.3 478.1.3 421.4c0-56.8 11.1-111.9 33.1-163.7 21.2-50.1 51.5-95.1 90.1-133.7 38.6-38.6 83.6-69 133.7-90.1C309.1 12 364.2.8 420.9.8c56.7 0 111.9 11.1 163.7 33.1 50.1 21.2 95.1 51.5 133.7 90.1 38.6 38.6 69 83.6 90.1 133.7 21.9 51.9 33.1 107 33.1 163.7 0 56.8-11.1 111.9-33.1 163.7-21.2 50.1-51.5 95.1-90.1 133.7-38.6 38.6-83.6 69-133.7 90.1-51.8 21.9-106.9 33.1-163.7 33.1zm0-821.4c-54.1 0-106.6 10.6-156 31.5-47.7 20.2-90.6 49.1-127.4 85.9-36.8 36.8-65.7 79.6-85.9 127.4-20.9 49.4-31.5 101.9-31.5 156 0 54.1 10.6 106.6 31.5 156 20.2 47.7 49.1 90.6 85.9 127.4 36.8 36.8 79.6 65.7 127.4 85.9 49.4 20.9 101.9 31.5 156 31.5 54.1 0 106.6-10.6 156-31.5 47.7-20.2 90.6-49.1 127.4-85.9 36.8-36.8 65.7-79.6 85.9-127.4 20.9-49.4 31.5-101.9 31.5-156 0-54.1-10.6-106.6-31.5-156-20.2-47.7-49.1-90.6-85.9-127.4-36.8-36.8-79.6-65.7-127.4-85.9-49.4-20.9-101.9-31.5-156-31.5z"/>
    </g>
  </g>
</svg>
